<?xml version="1.0" encoding="UTF-8"?>
<svg xmlns="http://www.w3.org/2000/svg" xmlns:xlink="http://www.w3.org/1999/xlink" width="120px" height="99px" viewBox="0 0 119 99" version="1.1">
<g id="surface1">
<path style=" stroke:none;fill-rule:nonzero;fill:rgb(0%,0%,0%);fill-opacity:1;" d="M 0 49.5 L 0 99 L 119 99 L 119 0 L 0 0 Z M 53.019531 11.046875 L 56.339844 17.691406 L 65.570312 17.753906 C 70.625 17.773438 74.78125 17.855469 74.78125 17.917969 C 74.78125 18.511719 64.390625 28.984375 64.023438 28.757812 C 63.941406 28.71875 61.964844 28.617188 59.601562 28.535156 C 56.625 28.453125 55.382812 28.472656 55.527344 28.617188 C 55.648438 28.738281 56.707031 29.351562 57.871094 29.964844 C 59.050781 30.601562 60.089844 31.191406 60.191406 31.296875 C 60.398438 31.5 59.234375 32.238281 57.667969 32.933594 C 56.769531 33.320312 56.199219 33.421875 54.914062 33.402344 C 52.46875 33.382812 51.308594 32.871094 49.128906 30.785156 C 46.621094 28.410156 46.113281 28.1875 43.117188 28.207031 C 39.980469 28.207031 38.554688 29.230469 37.695312 32.113281 C 36.25 36.941406 37.941406 40.828125 42.464844 43.058594 C 44.726562 44.183594 46.746094 44.652344 49.3125 44.671875 C 50.960938 44.671875 51.511719 44.589844 53.019531 44.039062 C 56.789062 42.710938 60.578125 39.988281 65.511719 35.078125 C 69.546875 31.070312 71.847656 28.390625 79.550781 18.816406 C 82.484375 15.175781 83.75 13.703125 83.953125 13.703125 C 84.175781 13.703125 84.320312 14.378906 84.664062 16.9375 C 84.828125 18.144531 85.152344 20.128906 85.378906 21.375 C 85.949219 24.566406 85.929688 24.851562 85.03125 25.957031 C 83.789062 27.492188 78.042969 33.933594 77.554688 34.324219 C 76.636719 35.039062 74.191406 37.308594 74.253906 37.371094 C 74.4375 37.574219 81.75 33.054688 84.847656 30.824219 C 85.726562 30.191406 86.519531 29.660156 86.601562 29.660156 C 86.683594 29.660156 86.867188 30.519531 86.988281 31.539062 C 87.128906 32.585938 87.476562 34.9375 87.78125 36.757812 C 88.191406 39.148438 88.273438 40.089844 88.109375 40.234375 C 87.988281 40.316406 86.457031 41.460938 84.726562 42.769531 C 80.425781 46.003906 78.675781 47.210938 76.453125 48.476562 C 75.414062 49.070312 74.597656 49.601562 74.660156 49.644531 C 74.78125 49.765625 78.367188 48.578125 84.21875 46.511719 C 86.558594 45.675781 88.578125 45 88.71875 45 C 88.964844 45 89.453125 47.476562 89.757812 50.316406 C 89.839844 50.933594 90.023438 52.160156 90.1875 53.019531 C 90.472656 54.511719 90.472656 54.675781 90.085938 56.003906 C 89.515625 57.867188 88.414062 59.15625 86.601562 60.011719 L 85.277344 60.648438 L 64.777344 60.648438 L 64.144531 61.671875 C 62.3125 64.574219 59.011719 69.546875 58.910156 69.546875 C 58.847656 69.546875 57.277344 67.519531 55.445312 65.046875 L 52.101562 60.546875 L 43.136719 60.546875 C 35.210938 60.546875 34.027344 60.503906 33.050781 60.199219 C 31.605469 59.726562 30.136719 58.417969 29.402344 56.90625 L 28.832031 55.738281 L 28.832031 22.808594 L 29.363281 21.660156 C 30.074219 20.148438 31.175781 18.960938 32.460938 18.328125 C 33.4375 17.816406 33.664062 17.796875 36.902344 17.796875 C 39.367188 17.796875 40.347656 17.734375 40.488281 17.53125 C 40.609375 17.40625 41.140625 15.976562 41.691406 14.378906 C 42.242188 12.761719 42.792969 11.453125 42.914062 11.453125 C 43.015625 11.453125 43.320312 11.882812 43.566406 12.414062 C 44.503906 14.503906 46.070312 17.304688 46.480469 17.632812 C 46.847656 17.9375 47.703125 17.980469 48.046875 17.691406 C 48.089844 17.652344 48.230469 16.363281 48.394531 14.808594 C 48.699219 11.90625 49.25 6.730469 49.433594 5.15625 C 49.496094 4.664062 49.578125 4.296875 49.617188 4.335938 C 49.65625 4.378906 51.1875 7.382812 53.019531 11.046875 Z M 17.726562 84.394531 L 17.726562 86.933594 L 21.597656 86.933594 L 21.597656 81.796875 L 23.128906 81.859375 L 24.675781 81.921875 L 24.71875 88.324219 L 24.757812 94.703125 L 21.597656 94.703125 L 21.597656 89.796875 L 17.707031 89.796875 L 17.75 92.128906 C 17.769531 93.414062 17.726562 94.539062 17.667969 94.644531 C 17.585938 94.765625 15.648438 94.828125 14.835938 94.726562 C 14.730469 94.703125 14.671875 91.800781 14.671875 88.28125 L 14.671875 81.839844 L 15.648438 81.777344 C 16.179688 81.738281 16.851562 81.757812 17.175781 81.796875 L 17.726562 81.859375 Z M 47.660156 82.289062 C 48.761719 83.023438 49.292969 84.171875 49.3125 85.808594 C 49.3125 87.441406 49.046875 88.300781 48.273438 89.101562 L 47.621094 89.773438 L 48.148438 90.65625 C 48.578125 91.410156 49.515625 94.03125 49.515625 94.5 C 49.515625 94.765625 47.601562 94.949219 47.03125 94.726562 C 46.582031 94.5625 46.398438 94.214844 45.867188 92.515625 C 45.5 91.433594 45.113281 90.449219 44.972656 90.367188 C 44.828125 90.285156 44.339844 90.203125 43.871094 90.203125 C 43.078125 90.203125 42.996094 90.246094 42.972656 90.714844 C 42.953125 91.003906 42.914062 91.308594 42.894531 91.433594 C 42.871094 91.535156 42.832031 92.3125 42.8125 93.148438 L 42.792969 94.664062 L 42.140625 94.746094 C 41.773438 94.808594 41.101562 94.808594 40.609375 94.746094 L 39.734375 94.644531 L 39.734375 88.488281 C 39.734375 85.113281 39.816406 82.226562 39.898438 82.085938 C 40.101562 81.777344 41.324219 81.65625 44.339844 81.695312 C 46.664062 81.714844 46.847656 81.738281 47.660156 82.289062 Z M 74.742188 81.980469 C 74.945312 82.1875 75.230469 82.902344 75.351562 83.558594 C 75.496094 84.230469 75.800781 85.601562 76.003906 86.625 C 76.230469 87.628906 76.554688 89.242188 76.738281 90.203125 C 76.921875 91.164062 77.207031 92.476562 77.351562 93.128906 C 77.511719 93.804688 77.59375 94.417969 77.511719 94.519531 C 77.328125 94.828125 75.066406 94.746094 74.804688 94.417969 C 74.679688 94.273438 74.4375 93.660156 74.253906 93.089844 L 73.945312 92.046875 L 69.953125 92.046875 L 69.667969 93.3125 L 69.382812 94.601562 L 67.996094 94.664062 C 66.976562 94.703125 66.632812 94.664062 66.632812 94.460938 C 66.632812 93.742188 69.363281 83.230469 69.707031 82.65625 C 70.21875 81.796875 70.6875 81.632812 72.703125 81.632812 C 74.050781 81.613281 74.4375 81.675781 74.742188 81.980469 Z M 89.859375 83.269531 L 89.859375 84.683594 L 84.972656 84.683594 L 84.972656 92.046875 L 86.480469 92.046875 C 87.292969 92.046875 88.394531 92.105469 88.925781 92.167969 L 89.859375 92.3125 L 89.859375 93.496094 C 89.859375 94.214844 89.757812 94.703125 89.617188 94.746094 C 89.472656 94.808594 88.171875 94.785156 86.722656 94.746094 C 83.871094 94.664062 83.28125 94.5 82.546875 93.558594 C 82.136719 93.046875 82.117188 92.761719 82.117188 88.28125 L 82.117188 83.535156 L 82.6875 83.003906 C 82.996094 82.71875 83.464844 82.351562 83.75 82.207031 C 84.257812 81.921875 87.722656 81.65625 89.105469 81.796875 L 89.859375 81.859375 Z M 97.21875 81.816406 C 97.585938 81.816406 97.605469 82.003906 97.605469 84.375 L 97.605469 86.933594 L 101.476562 86.933594 L 101.476562 81.796875 L 102.964844 81.859375 L 104.429688 81.921875 L 104.472656 88.160156 C 104.492188 91.59375 104.449219 94.519531 104.347656 94.664062 C 104.246094 94.828125 103.800781 94.867188 102.839844 94.765625 L 101.476562 94.644531 L 101.476562 89.796875 L 97.605469 89.796875 L 97.605469 92.230469 C 97.605469 93.578125 97.542969 94.726562 97.460938 94.765625 C 97.359375 94.808594 96.667969 94.785156 95.871094 94.726562 C 94.671875 94.621094 94.445312 94.539062 94.464844 94.234375 C 94.488281 94.050781 94.507812 91.1875 94.527344 87.871094 L 94.546875 81.839844 L 95.117188 81.757812 C 95.425781 81.695312 95.933594 81.695312 96.257812 81.738281 C 96.585938 81.777344 97.011719 81.816406 97.21875 81.816406 Z M 33.621094 88.21875 C 33.621094 91.757812 33.582031 94.683594 33.539062 94.726562 C 33.5 94.765625 32.867188 94.785156 32.132812 94.746094 L 30.808594 94.664062 L 30.667969 93.046875 C 30.585938 92.148438 30.585938 89.242188 30.667969 86.605469 L 30.808594 81.816406 L 33.621094 81.816406 Z M 62.433594 81.980469 C 62.476562 82.0625 62.476562 82.699219 62.414062 83.351562 L 62.3125 84.578125 L 59.886719 84.539062 L 57.460938 84.519531 L 57.460938 86.910156 L 59.765625 86.972656 L 62.046875 87.035156 L 62.046875 88.363281 C 62.046875 89.40625 61.984375 89.691406 61.742188 89.714844 C 61.578125 89.734375 60.539062 89.753906 59.460938 89.753906 L 57.460938 89.796875 L 57.460938 92.046875 L 62.332031 92.046875 L 62.453125 92.945312 C 62.71875 94.683594 62.921875 94.582031 58.726562 94.703125 C 56.6875 94.765625 54.914062 94.765625 54.8125 94.746094 C 54.691406 94.703125 54.609375 92.269531 54.609375 88.242188 L 54.609375 81.816406 L 58.460938 81.816406 C 60.601562 81.816406 62.375 81.898438 62.433594 81.980469 Z M 62.433594 81.980469 "/>
<path style=" stroke:none;fill-rule:nonzero;fill:rgb(0%,0%,0%);fill-opacity:1;" d="M 53.894531 22.03125 C 53.570312 22.089844 53.183594 22.214844 53.0625 22.316406 C 52.9375 22.417969 52.652344 22.4375 52.46875 22.355469 C 52.226562 22.273438 52.144531 22.296875 52.226562 22.4375 C 52.449219 22.785156 56.238281 24.382812 56.566406 24.257812 C 56.832031 24.15625 57.667969 22.519531 57.667969 22.070312 C 57.667969 21.886719 55.078125 21.867188 53.894531 22.03125 Z M 53.894531 22.03125 "/>
<path style=" stroke:none;fill-rule:nonzero;fill:rgb(0%,0%,0%);fill-opacity:1;" d="M 42.933594 85.601562 C 42.75 87.503906 42.792969 87.546875 44.421875 87.546875 L 45.785156 87.546875 L 45.910156 86.726562 C 45.96875 86.277344 45.96875 85.539062 45.910156 85.089844 L 45.785156 84.273438 L 43.054688 84.273438 Z M 42.933594 85.601562 "/>
<path style=" stroke:none;fill-rule:nonzero;fill:rgb(0%,0%,0%);fill-opacity:1;" d="M 71.523438 85.132812 C 71.378906 85.621094 71.113281 86.644531 70.890625 87.441406 C 70.320312 89.507812 70.277344 89.40625 71.992188 89.34375 L 73.457031 89.285156 L 73.398438 88.589844 C 73.355469 88.199219 73.113281 87.09375 72.886719 86.132812 C 72.359375 84.027344 71.890625 83.699219 71.523438 85.132812 Z M 71.523438 85.132812 "/>
</g>
</svg>
