<?xml version="1.0" standalone="no"?>
<!DOCTYPE svg PUBLIC "-//W3C//DTD SVG 20010904//EN"
 "http://www.w3.org/TR/2001/REC-SVG-20010904/DTD/svg10.dtd">
<svg version="1.0" xmlns="http://www.w3.org/2000/svg"
 width="584.000000pt" height="484.000000pt" viewBox="0 0 584.000000 484.000000"
 preserveAspectRatio="xMidYMid meet">

<g transform="translate(0.000000,484.000000) scale(0.100000,-0.100000)"
fill="#000000" stroke="none">
<path d="M0 2420 l0 -2420 2920 0 2920 0 0 2420 0 2420 -2920 0 -2920 0 0
-2420z m2602 1880 l163 -325 453 -3 c248 -1 452 -5 452 -8 0 -29 -510 -541
-528 -530 -4 2 -101 7 -217 11 -146 4 -207 3 -200 -4 6 -6 58 -36 115 -66 58
-31 109 -60 114 -65 10 -10 -47 -46 -124 -80 -44 -19 -72 -24 -135 -23 -120 1
-177 26 -284 128 -123 116 -148 127 -295 126 -154 0 -224 -50 -266 -191 -71
-236 12 -426 234 -535 111 -55 210 -78 336 -79 81 0 108 4 182 31 185 65 371
198 613 438 198 196 311 327 689 795 144 178 206 250 216 250 11 0 18 -33 35
-158 8 -59 24 -156 35 -217 28 -156 27 -170 -17 -224 -61 -75 -343 -390 -367
-409 -45 -35 -165 -146 -162 -149 9 -10 368 211 520 320 43 31 82 57 86 57 4
0 13 -42 19 -92 7 -51 24 -166 39 -255 20 -117 24 -163 16 -170 -6 -4 -81 -60
-166 -124 -211 -158 -297 -217 -406 -279 -51 -29 -91 -55 -88 -57 6 -6 182 52
469 153 115 41 214 74 221 74 12 0 36 -121 51 -260 4 -30 13 -90 21 -132 14
-73 14 -81 -5 -146 -28 -91 -82 -154 -171 -196 l-65 -31 -503 0 -503 0 -31
-50 c-90 -142 -252 -385 -257 -385 -3 0 -80 99 -170 220 l-164 220 -440 0
c-389 0 -447 2 -495 17 -71 23 -143 87 -179 161 l-28 57 0 805 0 805 26 56
c35 74 89 132 152 163 48 25 59 26 218 26 121 0 169 3 176 13 6 6 32 76 59
154 27 79 54 143 60 143 5 0 20 -21 32 -47 46 -102 123 -239 143 -255 18 -15
60 -17 77 -3 2 2 9 65 17 141 15 142 42 395 51 472 3 24 7 42 9 40 2 -2 77
-149 167 -328z m-1732 -3586 l0 -124 95 0 95 0 0 125 0 126 75 -3 76 -3 2
-313 2 -312 -77 0 -78 0 0 120 0 120 -96 0 -95 0 2 -114 c1 -63 -1 -118 -4
-123 -4 -6 -99 -9 -139 -4 -5 1 -8 143 -8 315 l0 315 48 3 c26 2 59 1 75 -1
l27 -3 0 -124z m1469 103 c54 -36 80 -92 81 -172 0 -80 -13 -122 -51 -161
l-32 -33 26 -43 c21 -37 67 -165 67 -188 0 -13 -94 -22 -122 -11 -22 8 -31 25
-57 108 -18 53 -37 101 -44 105 -7 4 -31 8 -54 8 -39 0 -43 -2 -44 -25 -1 -14
-3 -29 -4 -35 -1 -5 -3 -43 -4 -84 l-1 -74 -32 -4 c-18 -3 -51 -3 -75 0 l-43
5 0 301 c0 165 4 306 8 313 10 15 70 21 218 19 114 -1 123 -2 163 -29z m1329
15 c10 -10 24 -45 30 -77 7 -33 22 -100 32 -150 11 -49 27 -128 36 -175 9 -47
23 -111 30 -143 8 -33 12 -63 8 -68 -9 -15 -120 -11 -133 5 -6 7 -18 37 -27
65 l-15 51 -98 0 -98 0 -14 -62 -14 -63 -68 -3 c-50 -2 -67 0 -67 10 0 35 134
549 151 577 25 42 48 50 147 50 66 1 85 -2 100 -17z m742 -63 l0 -69 -120 0
-120 0 0 -180 0 -180 74 0 c40 0 94 -3 120 -6 l46 -7 0 -58 c0 -35 -5 -59 -12
-61 -7 -3 -71 -2 -142 0 -140 4 -169 12 -205 58 -20 25 -21 39 -21 258 l0 232
28 26 c15 14 38 32 52 39 25 14 195 27 263 20 l37 -3 0 -69z m361 71 c18 0 19
-9 19 -125 l0 -125 95 0 95 0 0 125 0 126 73 -3 72 -3 2 -305 c1 -168 -1 -311
-6 -318 -5 -8 -27 -10 -74 -5 l-67 6 0 118 0 119 -95 0 -95 0 0 -119 c0 -66
-3 -122 -7 -124 -5 -2 -39 -1 -78 2 -59 5 -70 9 -69 24 1 9 2 149 3 311 l1
295 28 4 c15 3 40 3 56 1 16 -2 37 -4 47 -4z m-3121 -313 c0 -173 -2 -316 -4
-318 -2 -2 -33 -3 -69 -1 l-65 4 -7 79 c-4 44 -4 186 0 315 l7 234 69 0 69 0
0 -313z m1414 305 c2 -4 2 -35 -1 -67 l-5 -60 -119 2 -119 1 0 -58 0 -59 113
-3 112 -3 0 -65 c0 -51 -3 -65 -15 -66 -8 -1 -59 -2 -112 -2 l-98 -2 0 -55 0
-55 119 0 120 0 6 -44 c13 -85 23 -80 -183 -86 -100 -3 -187 -3 -192 -2 -6 2
-10 121 -10 318 l0 314 189 0 c105 0 192 -4 195 -8z"/>
<path d="M2645 3763 c-16 -3 -35 -9 -41 -14 -6 -5 -20 -6 -29 -2 -12 4 -16 3
-12 -4 11 -17 197 -95 213 -89 13 5 54 85 54 107 0 9 -127 10 -185 2z"/>
<path d="M2107 655 c-9 -93 -7 -95 73 -95 l67 0 6 40 c3 22 3 58 0 80 l-6 40
-67 0 -67 0 -6 -65z"/>
<path d="M3510 678 c-7 -24 -20 -74 -31 -113 -28 -101 -30 -96 54 -93 l72 3
-3 34 c-2 19 -14 73 -25 120 -26 103 -49 119 -67 49z"/>
</g>
</svg>
