<?xml version="1.0" standalone="no"?>
<!DOCTYPE svg PUBLIC "-//W3C//DTD SVG 20010904//EN"
 "http://www.w3.org/TR/2001/REC-SVG-20010904/DTD/svg10.dtd">
<svg version="1.0" xmlns="http://www.w3.org/2000/svg"
 width="584.000000pt" height="484.000000pt" viewBox="0 0 584.000000 484.000000"
 preserveAspectRatio="xMidYMid meet">

<g transform="translate(0.000000,484.000000) scale(0.100000,-0.100000)"
fill="#DAA520" stroke="none">
<path d="M2426 4573 c-4 -32 -13 -114 -21 -183 -9 -69 -21 -187 -29 -263 -15
-163 -25 -181 -78 -155 -28 13 -46 41 -112 167 -43 84 -82 148 -87 144 -4 -4
-29 -71 -54 -148 -26 -77 -51 -146 -55 -154 -6 -11 -41 -13 -176 -12 -159 1
-172 0 -219 -22 -59 -28 -128 -100 -158 -165 -22 -47 -22 -48 -22 -857 l0
-810 28 -57 c36 -74 112 -143 179 -163 40 -12 131 -15 471 -16 232 0 433 -3
447 -6 18 -4 67 -60 185 -218 88 -118 163 -214 167 -214 7 -1 80 107 204 302
l82 129 469 -1 c495 -2 538 1 624 44 74 38 116 89 144 176 l24 76 -19 119
c-10 65 -26 172 -36 237 l-18 118 -30 -7 c-17 -4 -110 -35 -206 -69 -96 -35
-227 -79 -290 -100 -63 -20 -133 -43 -155 -50 l-40 -15 25 20 c14 11 29 20 33
20 7 0 47 25 217 135 36 23 136 97 223 163 88 67 166 126 175 131 13 8 12 31
-17 217 -17 115 -34 230 -38 257 -3 26 -7 47 -9 47 -1 0 -85 -56 -186 -123
-145 -98 -347 -218 -410 -245 -18 -8 -7 16 11 24 35 16 204 185 350 348 207
232 195 213 187 293 -4 38 -16 115 -26 173 -10 58 -25 149 -33 203 -8 54 -18
101 -22 105 -9 9 -49 -37 -243 -278 -361 -448 -544 -655 -740 -838 -248 -231
-430 -343 -627 -387 -67 -15 -89 -16 -173 -5 -285 36 -471 177 -512 386 -19
99 9 244 64 323 52 75 157 107 291 89 99 -14 120 -25 223 -121 112 -105 167
-130 287 -130 69 -1 91 4 156 31 42 18 84 41 93 51 20 22 21 21 -126 96 -54
28 -98 53 -98 58 0 8 107 8 298 -2 l134 -6 121 112 c67 62 129 120 137 130 8
10 72 79 143 153 l128 135 -457 5 -457 5 -133 260 c-73 143 -145 290 -160 328
-15 37 -30 67 -34 67 -4 0 -11 -26 -14 -57z m404 -812 c0 -17 -38 -99 -49
-105 -17 -11 -230 78 -218 91 18 17 267 30 267 14z"/>
<path d="M2010 841 l-55 -6 -3 -312 -2 -313 26 -6 c14 -4 49 -3 77 2 l52 9 -3
87 c-5 121 -2 128 59 128 47 0 49 -1 64 -37 9 -21 25 -69 35 -107 11 -38 25
-74 32 -78 13 -9 127 -3 136 7 8 8 -17 82 -56 167 l-35 77 35 33 c30 28 36 42
42 91 14 113 -11 192 -77 241 -24 17 -44 20 -150 22 -67 1 -147 -1 -177 -5z
m245 -190 c4 -39 4 -75 0 -80 -3 -6 -37 -11 -74 -11 -77 0 -81 4 -81 87 0 58
18 73 90 73 l58 0 7 -69z"/>
<path d="M3495 846 c-5 -2 -22 -7 -36 -10 -34 -7 -51 -48 -93 -221 -19 -77
-48 -195 -65 -262 -17 -68 -31 -127 -31 -132 0 -13 60 -21 100 -13 30 7 35 12
42 47 18 93 7 85 118 85 100 0 101 0 111 -27 6 -16 13 -43 16 -61 7 -42 37
-55 105 -46 33 5 48 11 44 19 -2 7 -30 142 -62 299 -32 158 -63 294 -69 302
-8 11 -34 17 -90 20 -44 2 -84 2 -90 0z m69 -169 c23 -61 46 -190 36 -201 -9
-9 -125 -4 -136 6 -14 15 52 238 70 238 8 0 21 -19 30 -43z"/>
<path d="M722 523 l3 -318 49 -3 c96 -6 95 -8 98 126 l3 117 93 3 92 3 0 -120
c0 -75 4 -122 11 -126 6 -4 39 -4 75 0 l64 7 0 314 0 314 -75 0 -75 0 0 -125
0 -126 -92 3 -93 3 0 123 0 122 -78 0 -77 0 2 -317z"/>
<path d="M1508 533 c-2 -170 -1 -314 1 -320 3 -14 44 -16 104 -7 l37 7 0 313
0 314 -69 0 -70 0 -3 -307z"/>
<path d="M2682 523 l3 -318 179 -3 c99 -1 183 1 187 5 4 5 10 34 13 66 l6 57
-102 2 c-57 1 -112 2 -123 2 -17 1 -20 9 -23 57 l-3 56 47 7 c26 3 75 6 109 6
l63 0 5 58 c2 31 3 60 0 65 -2 4 -54 7 -114 7 l-110 0 3 58 3 57 113 2 c63 0
115 3 116 5 2 1 6 31 9 66 l5 62 -194 0 -194 0 2 -317z"/>
<path d="M4115 824 c-16 -8 -42 -27 -57 -42 l-28 -26 0 -233 0 -233 35 -39 36
-39 133 -7 c177 -10 178 -9 174 68 l-3 62 -77 -3 c-43 -2 -96 -1 -118 3 l-40
7 2 176 3 177 115 5 115 5 3 68 3 67 -133 0 c-101 0 -140 -4 -163 -16z"/>
<path d="M4636 788 c-3 -29 -6 -169 -6 -311 l0 -257 23 -9 c12 -4 47 -5 77 -2
l55 6 3 118 3 117 88 0 89 0 7 -73 c4 -41 5 -94 4 -118 l-4 -44 78 -3 77 -3 0
316 0 315 -75 0 -74 0 -3 -122 -3 -123 -92 -3 -93 -3 0 126 0 125 -74 0 -73 0
-7 -52z"/>
</g>
</svg>
